<svg xmlns="http://www.w3.org/2000/svg" width="256" height="256" viewBox="0 0 100 100"><rect width="100" height="100" rx="20" fill="#000000"></rect><path fill="#fff" d="M42.42 30.73L28.88 30.73L28.88 74.76Q28.48 74.93 27.61 75.13Q26.75 75.34 25.85 75.34L25.85 75.34Q22.24 75.34 22.24 72.30L22.24 72.30L22.24 30.73L6.91 30.73Q6.66 30.32 6.42 29.62Q6.17 28.93 6.17 28.02L6.17 28.02Q6.17 26.63 6.83 25.85Q7.48 25.07 8.71 25.07L8.71 25.07L44.22 25.07Q44.47 25.48 44.71 26.18Q44.96 26.88 44.96 27.70L44.96 27.70Q44.96 29.09 44.30 29.91Q43.64 30.73 42.42 30.73L42.42 30.73ZM57.91 75.34L57.91 75.34Q54.31 75.34 54.31 72.39L54.31 72.39L54.31 26.06Q55.78 24.58 58.73 24.58L58.73 24.58Q60.70 24.58 62.10 25.36Q63.49 26.14 64.64 28.19L64.64 28.19L80.30 54.43Q81.28 56.15 82.35 58.08Q83.42 60.00 84.40 61.93Q85.38 63.86 86.24 65.54Q87.11 67.22 87.68 68.37L87.68 68.37L88.01 68.29Q87.35 61.64 87.23 54.92Q87.11 48.20 87.11 41.80L87.11 41.80L87.11 25.24Q87.60 25.07 88.42 24.87Q89.24 24.66 90.22 24.66L90.22 24.66Q93.83 24.66 93.83 27.61L93.83 27.61L93.83 74.03Q93.09 74.68 91.94 75.05Q90.80 75.42 89.40 75.42L89.40 75.42Q87.43 75.42 86.04 74.64Q84.65 73.86 83.50 71.81L83.50 71.81L67.92 45.57Q66.93 43.93 65.83 41.96Q64.72 40.00 63.69 38.11Q62.67 36.22 61.81 34.50Q60.95 32.78 60.37 31.63L60.37 31.63L60.05 31.71Q60.46 35.65 60.70 40.69Q60.95 45.74 60.95 50.25L60.95 50.25L60.95 74.76Q60.54 74.93 59.68 75.13Q58.82 75.34 57.91 75.34Z"></path></svg>